<?xml version="1.0" encoding="utf-8"?>
<!-- Generator: Adobe Illustrator 16.0.0, SVG Export Plug-In . SVG Version: 6.00 Build 0)  -->
<!DOCTYPE svg PUBLIC "-//W3C//DTD SVG 1.1//EN" "http://www.w3.org/Graphics/SVG/1.1/DTD/svg11.dtd">
<svg version="1.1" id="Layer_1" xmlns="http://www.w3.org/2000/svg" xmlns:xlink="http://www.w3.org/1999/xlink" x="0px" y="0px"
	 width="991.5px" height="337px" viewBox="0 0 991.5 337" enable-background="new 0 0 991.5 337" xml:space="preserve">
<g id="Layer_2">
	<g id="shadow">
		<circle id="period_2_" fill="#555555" cx="964.313" cy="227.881" r="27.188"/>
		<path fill="#555555" d="M834,169v84h54v-84H834z M924.73,75.38c-16.37,0-29.132,8.75-38.28,25.88L884.67,79H834v81h54v-17.25
			c5-10.77,15.86-16.16,32.99-16.16l17.949,1.3l0.971-50.57C935.6,76.03,930.55,75.38,924.73,75.38z"/>
		<path fill="#555555" d="M811,169H648v1.21c0,25.63,8.14,46.44,24.72,62.44c16.59,15.988,38.21,23.988,65.03,23.988
			c14.32,0,27.66-2.779,40.1-8.318c12.44-5.551,22.03-13.012,28.812-22.381l-24.88-29.399c-9.7,12.06-23.16,18.09-40.4,18.09
			c-10.45,0-18.96-2.85-25.52-8.46c-6.57-5.59-10.83-13.17-12.771-23.17H811V169z M789.92,98.24
			C775.71,83,756.36,75.38,731.81,75.38c-17.448,0-32.51,3.75-45.21,11.23c-12.71,7.49-22.369,18.07-28.988,31.74
			c-5.91,12.21-9.03,26.09-9.65,41.65h163.18C810.82,133.7,803.8,113.11,789.92,98.24z M758,149h-54.91
			c3.021-21,12.5-31.65,28.44-31.65c8.608,0.02,15.22,2.42,19.858,7.21c4.631,4.8,6.61,11.56,6.61,20.29L758,149L758,149z"/>
		<path fill="#555555" d="M526.85,79h-57.51l26.48,81h51.06L526.85,79z M558.95,169l-0.03,0.1l-4.93,19.58l-4.84-19.66L549.14,169
			h-50.27l27.5,84h55.57l27.46-84H558.95z M581.61,79l-20.38,81h51.21l26.52-81H581.61z"/>
		<path fill="#555555" d="M315.36,169c-8.171,9.04-12.25,20.76-12.25,35.23c0,15.078,5.76,27.55,17.291,37.51
			c11.52,9.96,25.479,14.92,41.96,14.92c16.64,0,29.64-5.43,39.64-16.21V253h54.5l0.5-84H315.36z M402,203.65
			c-2,3.66-5.16,6.949-9.62,9.85c-4.47,2.91-10.11,4.37-16.89,4.37c-5.17,0-9.431-1.54-12.771-4.61
			c-3.34-3.068-5.01-6.93-5.01-11.88c0-17.021,9.48-25.38,28.43-25.38H402V203.65z M385.17,147c-25.439,0-45.11,4.23-59.01,13H457
			l-0.2-23.76c-0.33-18.95-7.17-33.66-20.09-44.54c-12.93-10.88-30.53-16.32-52.83-16.32c-22.29,0-40.63,5.11-55,15.65
			C314.5,101.57,307.31,115,307.31,132h54.44c0-12,6.47-18.99,19.4-18.99c13.89,0,20.85,8.24,20.85,24.36V147H385.17z"/>
		<path fill="#555555" d="M191,169v84h54v-84H191z M282.11,75.38c-16.37,0-29.13,8.75-38.29,25.88L242.05,79H191v81h54v-17.25
			c5-10.77,16.05-16.16,33.17-16.16l18.05,1.3l1.01-50.57C292.94,76.03,287.92,75.38,282.11,75.38z"/>
		<path fill="#555555" d="M111.96,169c-0.18,12.52-1.02,21.5-2.54,26.93c-3.45,12.471-11.67,18.7-24.49,18.7
			c-12.6,0-20.93-4.62-25.93-13.87V169H5v84h48.52l2.27-17.74c10.87,14.12,25.2,21.28,42.97,21.28c21.53,0,38.34-7.649,50.18-23.05
			C160.58,218.38,167,196.891,167,169H111.96z M148.93,98.81c-11.84-15.62-28.78-23.43-50.54-23.43C82.34,75.38,69,81.15,59,92.67V5
			H5v155h54v-28.58c5-9.36,13.33-14.04,25.61-14.04c9.26,0,16.18,3.58,20.64,10.73c4.12,6.57,6.35,17.2,6.68,31.89h54.81
			C166.12,133.94,160.11,113.54,148.93,98.81z"/>
	</g>
	<g id="stroked">
		<circle id="period_1_" fill="#222222" cx="959.313" cy="222.881" r="27.188"/>
		<path fill="#222222" d="M829,164v84h54v-84H829z M919.73,70.38c-16.37,0-29.132,8.75-38.28,25.88L879.67,74H829v81h54v-17.25
			c5-10.77,15.86-16.16,32.99-16.16l17.949,1.3l0.971-50.57C930.6,71.03,925.55,70.38,919.73,70.38z"/>
		<path fill="#222222" d="M806,164H643v1.21c0,25.63,8.14,46.44,24.72,62.44c16.59,15.988,38.21,23.988,65.03,23.988
			c14.32,0,27.66-2.779,40.1-8.318c12.44-5.551,22.03-13.012,28.812-22.381l-24.88-29.399c-9.7,12.06-23.16,18.09-40.4,18.09
			c-10.45,0-18.96-2.85-25.52-8.46c-6.57-5.59-10.83-13.17-12.771-23.17H806V164z M784.92,93.24
			C770.71,78,751.36,70.38,726.81,70.38c-17.448,0-32.51,3.75-45.21,11.23c-12.71,7.49-22.369,18.07-28.988,31.74
			c-5.91,12.21-9.03,26.09-9.65,41.65h163.18C805.82,128.7,798.8,108.11,784.92,93.24z M753,144h-54.91
			c3.021-21,12.5-31.65,28.44-31.65c8.608,0.02,15.22,2.42,19.858,7.21c4.631,4.8,6.61,11.56,6.61,20.29L753,144L753,144z"/>
		<path fill="#222222" d="M521.85,74h-57.51l26.48,81h51.06L521.85,74z M553.95,164l-0.03,0.1l-4.93,19.58l-4.84-19.66L544.14,164
			h-50.27l27.5,84h55.57l27.46-84H553.95z M576.61,74l-20.38,81h51.21l26.52-81H576.61z"/>
		<path fill="#222222" d="M310.36,164c-8.17,9.04-12.25,20.76-12.25,35.23c0,15.08,5.76,27.55,17.291,37.51
			c11.52,9.96,25.479,14.92,41.96,14.92c16.64,0,29.64-5.43,39.64-16.21V248h54.5l0.5-84H310.36z M397,198.65
			c-2,3.66-5.16,6.949-9.62,9.85c-4.47,2.91-10.11,4.37-16.89,4.37c-5.17,0-9.431-1.54-12.771-4.61
			c-3.34-3.068-5.01-6.93-5.01-11.88c0-17.021,9.48-25.38,28.43-25.38H397V198.65z M380.17,142c-25.439,0-45.11,4.23-59.01,13H452
			l-0.2-23.76c-0.33-18.95-7.17-33.66-20.09-44.54c-12.93-10.88-30.53-16.32-52.83-16.32c-22.29,0-40.63,5.11-55,15.65
			C309.5,96.57,302.31,110,302.31,127h54.44c0-12,6.47-18.99,19.4-18.99c13.89,0,20.85,8.24,20.85,24.36V142H380.17z"/>
		<path fill="#222222" d="M186,164v84h54v-84H186z M277.11,70.38c-16.37,0-29.13,8.75-38.29,25.88L237.05,74H186v81h54v-17.25
			c5-10.77,16.05-16.16,33.17-16.16l18.05,1.3l1.01-50.57C287.94,71.03,282.92,70.38,277.11,70.38z"/>
		<path fill="#222222" d="M106.96,164c-0.18,12.52-1.02,21.5-2.54,26.93c-3.45,12.471-11.67,18.7-24.49,18.7
			c-12.6,0-20.93-4.62-25.93-13.87V164H0v84h48.52l2.27-17.74c10.87,14.12,25.2,21.28,42.97,21.28c21.53,0,38.34-7.649,50.18-23.05
			C155.58,213.38,162,191.891,162,164H106.96z M143.93,93.81c-11.84-15.62-28.78-23.43-50.54-23.43C77.34,70.38,64,76.15,54,87.67V0
			H0v155h54v-28.58c5-9.36,13.33-14.04,25.61-14.04c9.26,0,16.18,3.58,20.64,10.73c4.12,6.57,6.35,17.2,6.68,31.89h54.81
			C161.12,128.94,155.11,108.54,143.93,93.81z"/>
	</g>
	<g>
		<path fill="#555555" d="M395.158,302.439l18.084-25.217h4.712l-21.428,29.101l-2.993,17.257h-3.884l3.088-17.671l-11.145-28.687
			h4.362L395.158,302.439z"/>
		<path fill="#555555" d="M414.547,306.037c0.382-3.332,1.401-6.385,3.057-9.153c1.656-2.771,3.721-4.877,6.193-6.319
			c2.472-1.443,5.152-2.135,8.039-2.069c2.844,0.042,5.27,0.821,7.275,2.34c2.005,1.519,3.47,3.587,4.394,6.209
			c0.923,2.621,1.236,5.522,0.939,8.707l-0.064,0.604c-0.637,5.435-2.563,9.797-5.779,13.086c-3.215,3.291-7.073,4.883-11.572,4.775
			c-3.863-0.063-6.952-1.484-9.266-4.267c-2.313-2.78-3.448-6.452-3.407-11.017l0.097-1.814L414.547,306.037z M418.241,307.119
			c-0.276,2.525-0.09,4.855,0.557,6.988c0.647,2.134,1.683,3.806,3.104,5.016s3.193,1.847,5.316,1.91
			c2.292,0.043,4.389-0.541,6.288-1.751s3.465-2.919,4.696-5.126c1.23-2.208,2.027-4.648,2.388-7.323l0.095-1.051
			c0.383-4.097-0.25-7.444-1.894-10.046c-1.646-2.6-4.028-3.933-7.148-3.995c-3.396-0.105-6.331,1.204-8.803,3.933
			c-2.473,2.729-3.985,6.352-4.537,10.872L418.241,307.119z"/>
		<path fill="#555555" d="M472.239,319.25c-2.738,3.438-6.518,5.094-11.334,4.967c-3.248-0.063-5.667-1.236-7.259-3.519
			c-1.593-2.281-2.165-5.449-1.72-9.505l3.693-22.063h3.757l-3.662,22.159c-0.127,1.146-0.138,2.282-0.032,3.407
			c0.148,1.953,0.732,3.46,1.751,4.521c1.02,1.063,2.42,1.624,4.203,1.688c2.547,0.105,4.903-0.482,7.068-1.768
			s3.566-2.966,4.203-5.047l4.267-24.961h3.82l-5.985,34.449h-3.692L472.239,319.25z"/>
		<path fill="#555555" d="M505.479,292.348c-0.826-0.171-1.666-0.267-2.515-0.287c-2.42,0-4.639,0.737-6.654,2.213
			c-2.018,1.476-3.364,3.349-4.044,5.619l-4.074,23.688h-3.758l5.985-34.449h3.726l-1.146,5.477
			c1.252-2.037,2.765-3.588,4.537-4.648c1.771-1.061,3.72-1.57,5.842-1.527c0.743,0,1.613,0.148,2.611,0.445L505.479,292.348z"/>
		<path fill="#555555" d="M535.057,321.033c2.506,0.085,4.719-0.61,6.64-2.086c1.921-1.475,3.2-3.465,3.837-5.971h3.598
			c-0.637,3.418-2.309,6.172-5.015,8.264c-2.706,2.091-5.79,3.093-9.249,3.009c-2.781-0.063-5.116-0.828-7.005-2.293
			c-1.891-1.464-3.253-3.491-4.092-6.081c-0.839-2.589-1.108-5.508-0.813-8.756l0.128-1.369c0.254-2.229,0.801-4.395,1.64-6.495
			s1.958-3.964,3.358-5.587c1.401-1.624,3.072-2.908,5.015-3.854c1.943-0.944,4.134-1.385,6.575-1.32
			c3.522,0.085,6.325,1.273,8.405,3.564c2.08,2.293,3.057,5.201,2.929,8.725l-3.598-0.031c0.043-2.652-0.647-4.797-2.069-6.432
			s-3.364-2.494-5.826-2.579c-2.633-0.084-4.957,0.68-6.973,2.293c-2.017,1.612-3.534,3.895-4.554,6.845
			c-1.02,2.951-1.496,6.081-1.434,9.393c0.064,3.418,0.828,6.045,2.293,7.881C530.313,319.988,532.383,320.948,535.057,321.033z"/>
		<path fill="#555555" d="M555.529,306.037c0.382-3.332,1.4-6.385,3.057-9.153c1.655-2.771,3.72-4.877,6.192-6.319
			c2.472-1.443,5.151-2.135,8.04-2.069c2.844,0.042,5.269,0.821,7.273,2.34s3.471,3.587,4.396,6.209
			c0.923,2.621,1.234,5.522,0.938,8.707l-0.063,0.604c-0.638,5.435-2.563,9.797-5.778,13.086c-3.215,3.291-7.074,4.883-11.573,4.775
			c-3.864-0.063-6.952-1.484-9.266-4.267c-2.313-2.78-3.449-6.452-3.406-11.017l0.095-1.814L555.529,306.037z M559.223,307.119
			c-0.275,2.525-0.091,4.855,0.559,6.988c0.646,2.134,1.682,3.806,3.104,5.016s3.194,1.847,5.317,1.91
			c2.293,0.043,4.389-0.541,6.288-1.751c1.898-1.21,3.465-2.919,4.695-5.126c1.23-2.208,2.027-4.648,2.389-7.323l0.096-1.051
			c0.382-4.097-0.25-7.444-1.895-10.046c-1.646-2.6-4.027-3.933-7.147-3.995c-3.396-0.105-6.331,1.204-8.804,3.933
			c-2.474,2.729-3.985,6.352-4.537,10.872L559.223,307.119z"/>
		<path fill="#555555" d="M599.977,289.131l-1.146,5.891c1.528-2.123,3.295-3.752,5.301-4.888s4.155-1.683,6.448-1.64
			c3.311,0.085,5.72,1.24,7.227,3.47c1.508,2.229,2.038,5.297,1.594,9.202l-3.759,22.414h-3.757l3.757-22.456
			c0.128-1.208,0.148-2.374,0.064-3.498c-0.361-3.774-2.42-5.715-6.177-5.821c-2.229-0.041-4.311,0.621-6.241,1.988
			c-1.932,1.368-3.629,3.43-5.094,6.188l-4.075,23.601h-3.757l5.984-34.449L599.977,289.131L599.977,289.131z"/>
		<path fill="#555555" d="M638.756,321.033c2.505,0.085,4.718-0.61,6.639-2.086c1.922-1.475,3.2-3.465,3.838-5.971h3.598
			c-0.637,3.418-2.31,6.172-5.016,8.264c-2.705,2.091-5.789,3.093-9.248,3.009c-2.781-0.063-5.116-0.828-7.006-2.293
			c-1.89-1.464-3.253-3.491-4.091-6.081c-0.839-2.589-1.108-5.508-0.813-8.756l0.128-1.369c0.254-2.229,0.801-4.395,1.64-6.495
			c0.838-2.101,1.958-3.964,3.358-5.587c1.4-1.624,3.071-2.908,5.015-3.854c1.943-0.944,4.134-1.385,6.575-1.32
			c3.521,0.085,6.325,1.273,8.405,3.564c2.08,2.293,3.057,5.201,2.929,8.725l-3.598-0.031c0.043-2.652-0.647-4.797-2.069-6.432
			s-3.364-2.494-5.826-2.579c-2.633-0.084-4.957,0.68-6.973,2.293c-2.018,1.612-3.534,3.895-4.555,6.845
			c-1.019,2.951-1.495,6.081-1.433,9.393c0.064,3.418,0.828,6.045,2.293,7.881S636.082,320.948,638.756,321.033z"/>
		<path fill="#555555" d="M671.964,324.217c-2.759-0.043-5.146-0.812-7.163-2.309c-2.017-1.496-3.498-3.534-4.44-6.112
			c-0.945-2.579-1.279-5.364-1.003-8.358l0.095-1.082c0.298-3.184,1.242-6.213,2.834-9.09c1.592-2.875,3.607-5.072,6.05-6.591
			c2.44-1.518,5.051-2.245,7.832-2.181c2.568,0.042,4.738,0.743,6.511,2.102s3.063,3.247,3.868,5.668
			c0.806,2.42,1.063,5.094,0.765,8.022l-0.255,2.323H663.21l-0.096,0.765c-0.318,2.313-0.149,4.526,0.509,6.64
			c0.658,2.112,1.734,3.789,3.231,5.029c1.496,1.242,3.295,1.885,5.396,1.928c2.037,0.063,3.873-0.33,5.508-1.18
			s3.142-1.984,4.521-3.406l2.229,1.814c-1.55,1.995-3.391,3.508-5.524,4.537C676.852,323.766,674.512,324.259,671.964,324.217z
			 M675.976,291.741c-2.759-0.105-5.231,0.87-7.418,2.93s-3.832,4.956-4.936,8.69l19.995,0.033l0.096-0.479
			c0.382-3.014-0.148-5.607-1.592-7.785C680.677,292.957,678.629,291.826,675.976,291.741z"/>
		<path fill="#555555" d="M705.744,324.249c-1.975-0.043-3.836-0.462-5.587-1.258c-1.752-0.796-3.168-2.043-4.251-3.741
			l-3.185,17.575h-3.757l8.277-47.694h3.503l-0.893,4.871c2.993-3.799,6.738-5.636,11.239-5.508
			c3.227,0.085,5.741,1.283,7.546,3.598c1.805,2.313,2.737,5.594,2.803,9.838c0.021,1.338-0.044,2.633-0.191,3.885l-0.127,0.892
			c-0.531,3.715-1.528,6.921-2.993,9.616s-3.248,4.707-5.349,6.033S708.334,324.313,705.744,324.249z M717.461,305.83l0.191-3.021
			c0.063-3.393-0.554-6.054-1.848-7.981c-1.295-1.931-3.216-2.938-5.763-3.022c-2.229-0.041-4.251,0.504-6.065,1.639
			c-1.813,1.135-3.349,2.783-4.601,4.945l-2.834,16.569c0.68,1.951,1.756,3.437,3.231,4.453c1.475,1.017,3.241,1.559,5.302,1.622
			c3.077,0.105,5.683-1.044,7.815-3.451c2.134-2.406,3.57-5.762,4.313-10.064L717.461,305.83z"/>
		<path fill="#555555" d="M740.003,280.313l-1.528,8.818h6.909l-0.541,3.12h-6.909l-3.819,22.987l-0.063,1.974
			c0,2.313,1.062,3.503,3.185,3.565c0.656,0.021,1.688-0.053,3.088-0.223l-0.159,3.12c-1.252,0.36-2.525,0.521-3.82,0.478
			c-2.229-0.043-3.853-0.821-4.871-2.34c-1.02-1.518-1.391-3.72-1.113-6.606l3.788-22.955h-6.178l0.573-3.12h6.113l1.561-8.818
			H740.003z"/>
		<path fill="#555555" d="M769.072,314.602c0.34-2.929-1.443-5.052-5.35-6.367l-5.477-1.623c-5.03-1.698-7.408-4.532-7.132-8.502
			c0.147-2.865,1.47-5.194,3.964-6.988c2.494-1.793,5.461-2.669,8.898-2.626c3.375,0.042,6.112,0.991,8.215,2.85
			c2.102,1.858,3.076,4.335,2.93,7.435h-3.758c0.128-2.06-0.516-3.735-1.927-5.03c-1.411-1.294-3.284-1.963-5.618-2.006
			c-2.42,0-4.458,0.567-6.113,1.702c-1.655,1.137-2.59,2.639-2.802,4.507c-0.318,2.737,1.357,4.659,5.029,5.763l3.979,1.146
			l2.134,0.73c4.797,1.805,7.057,4.744,6.781,8.819c-0.17,2.76-1.364,5.026-3.582,6.798s-5.078,2.766-8.58,2.977l-1.306,0.032
			c-2.313-0.043-4.404-0.493-6.272-1.354c-1.867-0.858-3.301-2.063-4.298-3.612c-0.998-1.549-1.433-3.332-1.306-5.349l3.788,0.031
			c0,2.164,0.732,3.873,2.197,5.125c1.464,1.254,3.48,1.9,6.049,1.942c2.548,0,4.713-0.578,6.495-1.735
			C767.799,318.109,768.817,316.555,769.072,314.602z"/>
		<path fill="#555555" d="M779.706,321.288c0.063-0.743,0.366-1.374,0.907-1.896c0.541-0.521,1.184-0.791,1.927-0.813
			c0.764-0.021,1.39,0.234,1.878,0.766c0.488,0.53,0.7,1.178,0.637,1.941c-0.043,0.743-0.334,1.354-0.875,1.83
			c-0.542,0.478-1.184,0.728-1.927,0.748s-1.364-0.213-1.862-0.7C779.892,322.678,779.663,322.052,779.706,321.288z"/>
		<path fill="#555555" d="M848.382,280.534h-15.378l-7.48,43.046h-3.886l7.482-43.046h-15.41l0.604-3.312h34.673L848.382,280.534z"
			/>
		<path fill="#555555" d="M845.325,306.037c0.382-3.332,1.401-6.385,3.057-9.153c1.655-2.771,3.72-4.877,6.192-6.319
			c2.472-1.443,5.152-2.135,8.04-2.069c2.844,0.042,5.269,0.821,7.273,2.34s3.472,3.587,4.396,6.209
			c0.923,2.621,1.234,5.522,0.938,8.707l-0.063,0.604c-0.637,5.435-2.563,9.797-5.778,13.086c-3.215,3.291-7.074,4.883-11.573,4.775
			c-3.863-0.063-6.951-1.484-9.266-4.267c-2.313-2.78-3.449-6.452-3.406-11.017l0.096-1.814L845.325,306.037z M849.02,307.119
			c-0.276,2.525-0.092,4.855,0.558,6.988c0.646,2.134,1.682,3.806,3.104,5.016c1.423,1.21,3.194,1.847,5.317,1.91
			c2.293,0.043,4.389-0.541,6.288-1.751s3.465-2.919,4.696-5.126c1.229-2.208,2.026-4.648,2.388-7.323l0.096-1.051
			c0.382-4.097-0.25-7.444-1.895-10.046c-1.646-2.6-4.027-3.933-7.147-3.995c-3.396-0.105-6.331,1.204-8.804,3.933
			c-2.474,2.729-3.985,6.352-4.537,10.872L849.02,307.119z"/>
		<path fill="#555555" d="M900.088,323.58h-3.82l8.502-48.904h3.819L900.088,323.58z"/>
		<path fill="#555555" d="M914.575,323.58h-3.82l6.019-34.449h3.787L914.575,323.58z M917.822,279.165
			c0.105-1.38,1.02-2.25,2.738-2.61c0.827,0.148,1.416,0.408,1.768,0.779c0.35,0.372,0.578,0.982,0.685,1.831
			c-0.213,0.808-0.521,1.396-0.924,1.767c-0.403,0.373-1.008,0.644-1.813,0.813C918.555,281.489,917.737,280.63,917.822,279.165z"/>
		<path fill="#555555" d="M927.47,323.58l5.444-31.329h-5.54l0.573-3.12h5.508l0.669-4.681c0.53-3.375,1.819-5.985,3.868-7.832
			c2.048-1.847,4.601-2.749,7.656-2.706c1.23,0.042,2.621,0.254,4.172,0.637l-0.67,3.151c-1.188-0.318-2.323-0.478-3.405-0.478
			c-2.123,0-3.88,0.689-5.271,2.068c-1.391,1.381-2.266,3.301-2.627,5.764l-0.604,4.075h7.99l-0.572,3.12h-7.928l-5.444,31.329
			L927.47,323.58L927.47,323.58z"/>
		<path fill="#555555" d="M958.989,324.217c-2.759-0.043-5.147-0.812-7.163-2.309c-2.018-1.496-3.498-3.534-4.441-6.112
			c-0.945-2.579-1.279-5.364-1.003-8.358l0.095-1.082c0.299-3.184,1.242-6.213,2.834-9.09c1.593-2.875,3.608-5.072,6.051-6.591
			c2.439-1.518,5.051-2.245,7.832-2.181c2.567,0.042,4.737,0.743,6.511,2.102c1.771,1.358,3.062,3.247,3.868,5.668
			c0.806,2.42,1.062,5.094,0.765,8.022l-0.255,2.323h-23.848l-0.096,0.765c-0.317,2.313-0.148,4.526,0.51,6.64
			c0.657,2.112,1.734,3.789,3.231,5.029c1.496,1.242,3.295,1.885,5.396,1.928c2.037,0.063,3.873-0.33,5.509-1.18
			c1.635-0.85,3.142-1.984,4.521-3.406l2.229,1.814c-1.55,1.995-3.392,3.508-5.524,4.537S961.537,324.259,958.989,324.217z
			 M963.001,291.741c-2.759-0.105-5.231,0.87-7.418,2.93s-3.832,4.956-4.937,8.69l19.995,0.033l0.097-0.479
			c0.382-3.014-0.149-5.607-1.592-7.785C967.702,292.957,965.654,291.826,963.001,291.741z"/>
		<path fill="#555555" d="M978.38,321.288c0.063-0.743,0.366-1.374,0.907-1.896c0.541-0.521,1.184-0.791,1.927-0.813
			c0.765-0.021,1.39,0.234,1.878,0.766c0.488,0.53,0.7,1.178,0.637,1.941c-0.043,0.743-0.334,1.354-0.875,1.83
			c-0.541,0.478-1.184,0.728-1.927,0.748s-1.364-0.213-1.862-0.7C978.564,322.678,978.337,322.052,978.38,321.288z"/>
	</g>
</g>
</svg>
